<svg xmlns="http://www.w3.org/2000/svg" width="512" height="512" fill="none" aria-labelledby="title desc" role="img" viewBox="0 0 512 512"><title id="title">NicheDB</title><desc id="desc">Three sculpted amber data layers surrounding a mint-green agent core on an obsidian tile.</desc><defs><linearGradient id="tile" x1="64" x2="448" y1="16" y2="512" gradientUnits="userSpaceOnUse"><stop stop-color="#20322b"/><stop offset=".5" stop-color="#111f19"/><stop offset="1" stop-color="#091510"/></linearGradient><linearGradient id="edge" x1="92" x2="428" y1="24" y2="492" gradientUnits="userSpaceOnUse"><stop stop-color="#596c64" stop-opacity=".55"/><stop offset=".48" stop-color="#263c33" stop-opacity=".1"/><stop offset="1" stop-color="#5ee3ac" stop-opacity=".22"/></linearGradient><linearGradient id="gold" x1="117" x2="367" y1="172" y2="256" gradientUnits="userSpaceOnUse"><stop stop-color="#a0ffd7"/><stop offset=".48" stop-color="#65ffbf"/><stop offset="1" stop-color="#32f2a2"/></linearGradient><linearGradient id="middle" x1="108" x2="398" y1="238" y2="332" gradientUnits="userSpaceOnUse"><stop stop-color="#60f7b8"/><stop offset="1" stop-color="#27c986"/></linearGradient><linearGradient id="lower" x1="108" x2="396" y1="314" y2="396" gradientUnits="userSpaceOnUse"><stop stop-color="#42d799"/><stop offset="1" stop-color="#269466"/></linearGradient><linearGradient id="core" x1="215" x2="290" y1="120" y2="202" gradientUnits="userSpaceOnUse"><stop stop-color="#d4ffed"/><stop offset=".5" stop-color="#74f8c1"/><stop offset="1" stop-color="#37ce8f"/></linearGradient><radialGradient id="aura" cx="0" cy="0" r="1" gradientTransform="matrix(116 0 0 91 256 159)" gradientUnits="userSpaceOnUse"><stop stop-color="#5ee3ac" stop-opacity=".13"/><stop offset="1" stop-color="#5ee3ac" stop-opacity="0"/></radialGradient></defs><g id="surface"><rect width="510" height="510" x="1" y="1" fill="url(#tile)" rx="104"/><rect width="510" height="510" x="1" y="1" stroke="url(#edge)" stroke-width="2" rx="104"/><ellipse cx="256" cy="399" fill="#030d09" opacity=".45" rx="113" ry="20"/></g><g id="data-lower"><path fill="#217150" d="m110 305 134-69q12-6 24 0l134 69v24q0 8-8 12l-125 66q-13 7-26 0l-125-66q-8-4-8-12Z"/><path fill="url(#lower)" d="m110 305 134-69q12-6 24 0l134 69-134 71q-12 7-24 0Z"/><path stroke="#58e0a7" stroke-opacity=".3" stroke-width="2" d="M256 381v30"/></g><g id="data-middle"><path fill="#28a873" d="m110 231 134-69q12-6 24 0l134 69v24q0 8-8 12l-125 66q-13 7-26 0l-125-66q-8-4-8-12Z"/><path fill="url(#middle)" d="m110 231 134-69q12-6 24 0l134 69-134 71q-12 7-24 0Z"/><path stroke="#79ffc7" stroke-opacity=".4" stroke-width="2" d="M256 307v30"/></g><g id="data-upper"><path fill="#35d894" d="m110 158 48-25 49 26-41 21 90 48 90-48-41-21 49-26 48 25v24q0 8-8 12l-126 67q-12 7-24 0l-126-67q-8-4-8-12Z"/><path fill="url(#gold)" d="m110 158 48-25 49 26-41 21 90 48 90-48-41-21 49-26 48 25-134 71q-12 7-24 0Z"/><path stroke="#c5ffe7" stroke-opacity=".5" stroke-width="2" d="m111 158 133 71q12 7 24 0l133-71"/><path stroke="#a0ffd7" stroke-opacity=".65" stroke-width="2" d="M256 235v30"/></g><g id="agent-core"><ellipse cx="256" cy="159" fill="url(#aura)" rx="116" ry="91"/><path fill="#229b69" d="m212 132 44-24 44 24v36l-44 24-44-24Z"/><path fill="url(#core)" d="m212 132 44-24 44 24-44 25Z"/><path fill="#5ee3ac" d="m212 132 44 25v35l-44-24Z"/><path fill="#2aba7e" d="m256 157 44-25v36l-44 24Z"/><path stroke="#dcfff0" stroke-opacity=".7" stroke-width="2" d="m213 132 43 24 43-24"/><path stroke="#b5ffe0" stroke-opacity=".45" stroke-width="2" d="M256 157v33"/></g><path id="active-records" stroke="#81f5c5" stroke-linecap="round" stroke-width="5" d="m329 363 12-6m10-6 12-6m10-6 12-6"/></svg>